<?xml version="1.0" encoding="UTF-8" standalone="no"?>
<svg
   viewBox="0 0 32 32"
   version="1.1"
   id="svg12"
   sodipodi:docname="folder-design.svg"
   inkscape:version="1.3 (0e150ed6c4, 2023-07-21)"
   xmlns:inkscape="http://www.inkscape.org/namespaces/inkscape"
   xmlns:sodipodi="http://sodipodi.sourceforge.net/DTD/sodipodi-0.dtd"
   xmlns="http://www.w3.org/2000/svg"
   xmlns:svg="http://www.w3.org/2000/svg"
   xmlns:rdf="http://www.w3.org/1999/02/22-rdf-syntax-ns#"
   xmlns:cc="http://creativecommons.org/ns#"
   xmlns:dc="http://purl.org/dc/elements/1.1/">
  <metadata
     id="metadata16">
    <rdf:RDF>
      <cc:Work
         rdf:about="">
        <dc:format>image/svg+xml</dc:format>
        <dc:type
           rdf:resource="http://purl.org/dc/dcmitype/StillImage" />
      </cc:Work>
    </rdf:RDF>
  </metadata>
  <sodipodi:namedview
     pagecolor="#ffffff"
     bordercolor="#666666"
     borderopacity="1"
     objecttolerance="10"
     gridtolerance="10"
     guidetolerance="10"
     inkscape:pageopacity="0"
     inkscape:pageshadow="2"
     inkscape:window-width="1920"
     inkscape:window-height="994"
     id="namedview14"
     showgrid="false"
     inkscape:zoom="9.8125"
     inkscape:cx="20.942675"
     inkscape:cy="10.751592"
     inkscape:window-x="0"
     inkscape:window-y="0"
     inkscape:window-maximized="1"
     inkscape:current-layer="svg12"
     inkscape:document-rotation="0"
     inkscape:lockguides="false"
     inkscape:showpageshadow="2"
     inkscape:pagecheckerboard="0"
     inkscape:deskcolor="#d1d1d1">
    <inkscape:grid
       type="xygrid"
       id="grid841"
       originx="0"
       originy="0"
       spacingy="1"
       spacingx="1"
       units="px"
       visible="false" />
  </sodipodi:namedview>
  <defs
     id="defs3051">
    <style
       type="text/css"
       id="current-color-scheme">&#10;      .ColorScheme-Text {&#10;        color:#31363b;&#10;      }&#10;      .ColorScheme-Background {&#10;        color:#eff0f1;&#10;      }&#10;      .ColorScheme-Highlight {&#10;        color:#3daee9;&#10;      }&#10;      .ColorScheme-ViewText {&#10;        color:#31363b;&#10;      }&#10;      .ColorScheme-ViewBackground {&#10;        color:#fcfcfc;&#10;      }&#10;      .ColorScheme-ViewHover {&#10;        color:#93cee9;&#10;      }&#10;      .ColorScheme-ViewFocus{&#10;        color:#3daee9;&#10;      }&#10;      .ColorScheme-ButtonText {&#10;        color:#31363b;&#10;      }&#10;      .ColorScheme-ButtonBackground {&#10;        color:#eff0f1;&#10;      }&#10;      .ColorScheme-ButtonHover {&#10;        color:#93cee9;&#10;      }&#10;      .ColorScheme-ButtonFocus{&#10;        color:#3daee9;&#10;      }&#10;      </style>
  </defs>
  <path
     style="fill:currentColor;fill-opacity:1;stroke:none"
     d="m 2,7 v 3 c -1,0 -1,0 -1,1 v 14 c 0,3 1,4 4,4 h 7 1 14 c 2.978306,0 4,-1 4,-4 V 8.9896483 9 C 31,8 31,8 30,8 30,5 28,5 25,5 H 16 C 16,5 16,3 14,3 H 6 C 2.9885736,3 2,4 2,7 Z"
     class="ColorScheme-Highlight"
     id="path4"
     sodipodi:nodetypes="ccccccccccccccccc" />
  <path
     style="fill-opacity:0.33;fill-rule:evenodd"
     d="M 6,3 C 3,3 2,4.03267 2,7 v 3 h 9 L 13,8 H 30 C 30,5 28,5 25,5 h -9 c 0,0 0,-2 -2,-2 z"
     id="path6"
     sodipodi:nodetypes="cccccccccc" />
  <path
     style="opacity:0.01;fill:#ffffff;fill-opacity:0.2;fill-rule:evenodd"
     d="m 14,3 1,3 H 27 V 5 H 16 c 0,0 0,-2 -2,-2 z m -1,5 -2,2 H 2 c -1,0 -1,0 -1,1 h 11 z"
     id="path8"
     sodipodi:nodetypes="cccccccccccc" />
  <path
     style="fill-opacity:0.2;fill-rule:evenodd"
     d="M 13,8 11,9 H 2 v 1 h 9 z M 1.738392,28 C 2.2760062,28.56082 3,29 5,29 h 22 c 1.852094,0 2.518009,-0.336138 3.224022,-1 z"
     class="ColorScheme-Text"
     id="path10"
     sodipodi:nodetypes="ccccccccccc" />
  <path
     style="color:#31363b;fill:#e5e5e5;fill-opacity:1;stroke:none;stroke-width:0.828211"
     d="m 16.035398,12.9565 c -0.914815,0 -1.656418,0.741603 -1.656418,1.656422 3.57e-4,0.558264 0.281902,1.078802 0.748947,1.384661 l -1.674219,3.584586 h -0.317044 c -0.229419,0 -0.414106,0.184687 -0.414106,0.414103 0,0.205927 0.1514,0.368531 0.34778,0.401169 l -1.02393,2.169197 c -0.07926,0.169235 -0.04018,0.365113 0.08409,0.491743 l -0.485257,0.985119 0.766737,-0.829823 c 0.203565,0.05326 0.422081,-0.04407 0.514401,-0.239408 l 1.209955,-2.563893 h 1.899064 v 0.414106 c 0,0.229418 0.184691,0.414105 0.414105,0.414105 0.229405,0 0.414106,-0.184687 0.414106,-0.414105 v -0.414106 h 0.965696 l 1.209964,2.563893 c 0.09115,0.196463 0.308782,0.29266 0.511167,0.239408 l 0.766737,0.829823 -0.483666,-0.985119 c 0.123085,-0.12663 0.163407,-0.321318 0.08409,-0.491743 l -1.017459,-2.156262 h 0.03393 c 0.229413,0 0.414105,-0.184687 0.414105,-0.414104 0,-0.229416 -0.184692,-0.414103 -0.414105,-0.414103 H 18.510321 L 16.881399,16.03478 c 0.501766,-0.298076 0.809639,-0.838229 0.810415,-1.421858 0,-0.914819 -0.741607,-1.656422 -1.656412,-1.656422 z m 0,0.828211 c 0.457403,0 0.828211,0.370794 0.828211,0.828211 0,0.457399 -0.370808,0.828207 -0.828211,0.828207 -0.457413,0 -0.828207,-0.370808 -0.828207,-0.828207 0,-0.457417 0.370794,-0.828211 0.828207,-0.828211 z m 0.06953,2.97152 1.332904,2.825938 h -0.574231 v -0.414105 c 0,-0.229407 -0.184697,-0.414106 -0.414106,-0.414106 -0.229414,0 -0.414104,0.184699 -0.414104,0.414106 v 0.414105 h -1.509222 l 1.332902,-2.825938 c 0.06634,-0.10723 0.176322,-0.100286 0.245871,0 z"
     class="ColorScheme-Text"
     id="path31293" />
</svg>
